<svg xmlns="http://www.w3.org/2000/svg" width="24" height="24" viewBox="0 0 24 24" fill="#ff0000">
    <rect width="21" height="16" rx="28" x="2" y="4" fill="#fff"/>
    <path d="M20 0a4 4 0 0 1 4 4v16a4 4 0 0 1-4 4H4a4 4 0 0 1-4-4V4a4 4 0 0 1 4-4h16zm-.87 11.98a5.11 5.11 0 0 0-6.68-1.01c-2.37 1.58-2.67 4.52-.62 6.45a4.7 4.7 0 0 0 3.84 1.27c.48-.05.96-.32 1.42-.27.46.05.9.37 1.36.58l-.05-.25a.49.49 0 0 0-.04-.1c-.27-.5-.15-.83.23-1.2l.1-.1a3.89 3.89 0 0 0 .44-5.37zm-4.94-4.76A5.87 5.87 0 0 0 7.72 5.3a5.07 5.07 0 0 0-3.54 3.5 4.58 4.58 0 0 0 1.78 5.01l.2.15c.24.17.3.33.25.58l-.03.1c-.12.4-.19.84-.3 1.34l.99-.63.61-.38a1 1 0 0 1 .56-.1c.53.05 1.06.13 1.64.2a4.65 4.65 0 0 1 1.41-3.9 5.63 5.63 0 0 1 3.83-1.57 4.54 4.54 0 0 0-.93-2.38zm-1.09 5.4a.56.56 0 0 1 0 1.12.56.56 0 0 1-.56-.54.57.57 0 0 1 .56-.58zm3.45 0c.31 0 .55.26.54.58a.54.54 0 0 1-.55.54.55.55 0 0 1-.54-.58c.01-.3.26-.54.55-.54zm-4.7-4.32c.37-.01.67.28.68.66 0 .38-.29.68-.67.68a.67.67 0 0 1-.68-.66c0-.36.3-.68.67-.68zm-4.23 0c.37 0 .67.33.66.7a.68.68 0 0 1-.7.64.66.66 0 0 1-.65-.7.67.67 0 0 1 .7-.64z" />
</svg>